<?xml version="1.0" standalone="no"?>
<!DOCTYPE svg PUBLIC "-//W3C//DTD SVG 20010904//EN"
 "http://www.w3.org/TR/2001/REC-SVG-20010904/DTD/svg10.dtd">
<svg version="1.0" xmlns="http://www.w3.org/2000/svg"
 width="512.000000pt" height="512.000000pt" viewBox="0 0 512.000000 512.000000"
 preserveAspectRatio="xMidYMid meet">
<metadata>
Created by potrace 1.11, written by Peter Selinger 2001-2013
</metadata>
<g transform="translate(0.000000,512.000000) scale(0.100000,-0.100000)"
fill="#000000" stroke="none">
<path d="M4315 5058 c-220 -61 -305 -87 -490 -150 -516 -174 -913 -359 -1310
-611 -117 -74 -307 -207 -325 -227 -3 -3 -27 -24 -55 -45 -86 -69 -97 -79
-168 -145 -230 -214 -407 -423 -556 -658 -63 -100 -191 -345 -191 -366 0 -9
-4 -16 -9 -16 -5 0 -12 -12 -16 -27 -3 -16 -13 -41 -20 -58 -40 -89 -126 -377
-140 -470 -4 -22 -11 -59 -16 -82 -5 -23 -11 -63 -14 -90 -3 -26 -8 -59 -10
-73 -26 -144 -26 -582 0 -750 2 -14 7 -47 10 -75 4 -27 8 -57 10 -65 2 -8 7
-28 10 -45 2 -16 7 -41 10 -55 3 -14 8 -40 11 -57 3 -18 14 -63 25 -100 11
-38 22 -79 25 -93 10 -49 10 -49 224 -50 74 0 146 2 160 4 14 3 63 8 110 12
96 7 98 8 160 19 65 11 79 14 135 25 28 6 59 12 70 14 90 18 315 90 445 143
151 62 445 222 525 285 6 4 44 33 85 64 254 191 480 437 673 731 169 257 323
588 431 922 38 117 105 362 121 439 2 9 15 71 28 137 14 66 28 138 31 160 4
22 11 65 16 95 5 30 11 73 14 95 3 22 10 78 16 125 6 47 13 101 15 120 3 19 7
64 10 100 3 36 7 90 10 121 20 210 34 711 20 715 -6 1 -41 -7 -80 -18z"/>
<path d="M0 320 l0 -320 2560 0 2560 0 0 320 0 320 -2560 0 -2560 0 0 -320z"/>
</g>
</svg>
